<?xml version="1.0" encoding="UTF-8" standalone="no"?>
<svg
   xmlns:dc="http://purl.org/dc/elements/1.1/"
   xmlns:cc="http://creativecommons.org/ns#"
   xmlns:rdf="http://www.w3.org/1999/02/22-rdf-syntax-ns#"
   xmlns:svg="http://www.w3.org/2000/svg"
   xmlns="http://www.w3.org/2000/svg"
   xmlns:xlink="http://www.w3.org/1999/xlink"
   xmlns:sodipodi="http://sodipodi.sourceforge.net/DTD/sodipodi-0.dtd"
   xmlns:inkscape="http://www.inkscape.org/namespaces/inkscape"
   width="88.748451mm"
   height="82.857574mm"
   viewBox="0 0 88.748451 82.857574"
   version="1.1"
   id="svg8"
   inkscape:version="1.0.2 (e86c8708, 2021-01-15)"
   sodipodi:docname="logo.svg">
  <defs
     id="defs2">
    <linearGradient
       inkscape:collect="always"
       id="linearGradient1914">
      <stop
         style="stop-color:#f2e5bc;stop-opacity:1;"
         offset="0"
         id="stop1910" />
      <stop
         style="stop-color:#d5c4a1;stop-opacity:1"
         offset="1"
         id="stop1912" />
    </linearGradient>
    <linearGradient
       inkscape:collect="always"
       id="linearGradient1880">
      <stop
         style="stop-color:#b57614;stop-opacity:1"
         offset="0"
         id="stop1876" />
      <stop
         style="stop-color:#9d0006;stop-opacity:1"
         offset="1"
         id="stop1878" />
    </linearGradient>
    <linearGradient
       inkscape:collect="always"
       id="linearGradient1102">
      <stop
         style="stop-color:#665c54;stop-opacity:1;"
         offset="0"
         id="stop1098" />
      <stop
         style="stop-color:#282828;stop-opacity:1"
         offset="1"
         id="stop1100" />
    </linearGradient>
    <linearGradient
       inkscape:collect="always"
       id="linearGradient1092">
      <stop
         style="stop-color:#665c54;stop-opacity:1;"
         offset="0"
         id="stop1088" />
      <stop
         style="stop-color:#282828;stop-opacity:1"
         offset="1"
         id="stop1090" />
    </linearGradient>
    <linearGradient
       inkscape:collect="always"
       xlink:href="#linearGradient1092"
       id="linearGradient1094"
       x1="121.96619"
       y1="107.13972"
       x2="122.54719"
       y2="123.11542"
       gradientUnits="userSpaceOnUse" />
    <linearGradient
       inkscape:collect="always"
       xlink:href="#linearGradient1102"
       id="linearGradient1096"
       x1="121.96619"
       y1="107.13972"
       x2="122.54719"
       y2="123.11542"
       gradientUnits="userSpaceOnUse" />
    <radialGradient
       inkscape:collect="always"
       xlink:href="#linearGradient1880"
       id="radialGradient1882"
       cx="85.85675"
       cy="126.05593"
       fx="85.85675"
       fy="126.05593"
       r="27.15461"
       gradientTransform="matrix(1.517512,0.8554299,-0.90313268,1.6021354,61.687362,-154.13864)"
       gradientUnits="userSpaceOnUse" />
    <linearGradient
       inkscape:collect="always"
       xlink:href="#linearGradient1914"
       id="linearGradient1890"
       x1="48.695549"
       y1="106.49899"
       x2="123.5946"
       y2="106.49899"
       gradientUnits="userSpaceOnUse" />
    <linearGradient
       inkscape:collect="always"
       xlink:href="#linearGradient1914"
       id="linearGradient1892"
       x1="93.427017"
       y1="102.96548"
       x2="137.444"
       y2="102.96548"
       gradientUnits="userSpaceOnUse" />
  </defs>
  <sodipodi:namedview
     id="base"
     pagecolor="#ffffff"
     bordercolor="#666666"
     borderopacity="1.0"
     inkscape:pageopacity="0.0"
     inkscape:pageshadow="2"
     inkscape:zoom="1.3968938"
     inkscape:cx="144.95438"
     inkscape:cy="196.61053"
     inkscape:document-units="mm"
     inkscape:current-layer="layer1"
     inkscape:document-rotation="0"
     showgrid="false"
     inkscape:window-width="1440"
     inkscape:window-height="847"
     inkscape:window-x="2560"
     inkscape:window-y="565"
     inkscape:window-maximized="0" />
  <metadata
     id="metadata5">
    <rdf:RDF>
      <cc:Work
         rdf:about="">
        <dc:format>image/svg+xml</dc:format>
        <dc:type
           rdf:resource="http://purl.org/dc/dcmitype/StillImage" />
        <dc:title></dc:title>
      </cc:Work>
    </rdf:RDF>
  </metadata>
  <g
     inkscape:label="Layer 1"
     inkscape:groupmode="layer"
     id="layer1"
     transform="translate(-48.695548,-65.070197)">
    <path
       id="path919"
       style="fill:url(#linearGradient1094);fill-opacity:1;stroke:url(#linearGradient1890);stroke-width:1.05833;stroke-miterlimit:4;stroke-dasharray:none;stroke-opacity:1"
       d="m 59.669224,66.347887 c -0.820848,1.584965 -1.433787,3.266181 -2.214335,4.870505 -1.317294,-0.431117 -2.565347,-1.044966 -3.880757,-1.480312 -0.320956,-0.10283 -0.646306,-0.193013 -0.976826,-0.259635 0.06084,0.492297 0.266118,0.954241 0.418653,1.42335 0.402309,1.09683 0.855816,2.174322 1.236543,3.279206 -0.821811,0.541078 -1.703152,0.9824 -2.609299,1.363054 -0.715246,0.315063 -1.444853,0.610925 -2.127364,0.99029 0.265602,0.313415 0.690726,0.420656 1.050213,0.592124 1.261909,0.531763 2.535396,1.036815 3.777917,1.613427 -0.452864,1.317768 -1.087303,2.566662 -1.499883,3.898617 -0.09009,0.297534 -0.165807,0.599617 -0.220425,0.90574 0.523962,-0.07085 1.018209,-0.281967 1.516155,-0.452104 1.11655,-0.418881 2.214809,-0.886754 3.351766,-1.250117 0.734726,1.665259 1.435676,3.344894 2.13682,5.024498 0.669565,-1.617294 1.338992,-3.234647 2.008661,-4.8519 0.461092,0.46377 0.904962,0.962229 1.489794,1.274935 1.121506,0.651462 2.381147,1.039569 3.457972,1.773364 0.08181,0.09157 0.377632,0.153943 0.324689,0.263901 -1.739112,1.849165 -3.306487,3.861787 -4.637868,6.024182 -1.046427,1.694336 -1.968545,3.498844 -2.727701,5.351803 -1.340011,3.255775 -2.219716,6.760915 -2.570683,10.291685 -0.252379,2.48968 -0.244428,5.07937 0.02717,7.58966 0.146852,1.37373 0.37602,2.75385 0.672523,4.08095 1.20378,5.41362 3.661429,10.55446 7.129283,14.89573 2.192218,2.75337 4.807151,5.20908 7.704738,7.22828 0.718198,0.5019 1.478264,0.9924 2.23008,1.439 2.065279,1.23056 4.264125,2.26111 6.51719,3.05889 2.139543,0.75964 4.387239,1.32819 6.650455,1.6787 0.978358,0.15134 2.021724,0.27046 3.024871,0.34087 2.026843,0.14397 4.070648,0.11877 6.087684,-0.074 1.413147,-0.13302 2.879037,-0.36196 4.24055,-0.65566 4.15608,-0.89205 8.17393,-2.52286 11.78282,-4.78611 3.83064,-2.39901 7.24282,-5.53881 9.94903,-9.17896 0.18743,-0.21363 -0.015,-0.0493 -0.12524,0.0223 -6.29993,4.28033 -14.0488,6.27441 -21.6334,5.85045 -6.679764,-0.36233 -13.286696,-2.60152 -18.680298,-6.58594 -4.092877,-3.01465 -7.463375,-7.05329 -9.504059,-11.72244 -1.848873,-4.19131 -2.584259,-8.87324 -2.056809,-13.42677 0.52433,-4.66212 2.356929,-9.147162 5.140163,-12.914514 3.455932,-4.703701 8.323141,-8.293324 13.722128,-10.464979 7.350008,-2.972647 15.693315,-3.373875 23.308385,-1.184805 0.32987,-0.645265 0.65974,-1.290531 0.98961,-1.935797 -3.75282,-2.551406 -8.0582,-4.423151 -12.49786,-5.422831 -0.87258,-0.197578 -1.695293,-0.352714 -2.583428,-0.489313 -0.803299,-0.122637 -1.657749,-0.223811 -2.47994,-0.292192 -1.513382,-0.126828 -3.029159,-0.158409 -4.546531,-0.09736 -1.53,0.0632 -3.032831,0.216881 -4.551883,0.47004 -1.505376,0.251164 -2.982802,0.59205 -4.463439,1.033439 -4.810173,1.430877 -9.347639,3.878445 -13.189749,7.127655 -0.259699,0.219361 -0.516358,0.442285 -0.774348,0.663665 C 68.546831,82.664386 68.071819,82.050466 67.665861,81.389603 67.1065,80.516605 66.563168,79.586655 65.6977,78.97805 c -0.159131,-0.126066 -0.318262,-0.252132 -0.477393,-0.378198 0.746905,-0.367747 1.501365,-0.720873 2.285648,-1.002522 0.725231,-0.284578 1.486543,-0.574855 2.077394,-1.086755 -0.303376,-0.282345 -0.722579,-0.387932 -1.081566,-0.582218 -0.928275,-0.431933 -1.894914,-0.80368 -2.826475,-1.263579 -0.193566,-0.0952 -0.387059,-0.19055 -0.580575,-0.285856 0.188336,-0.887603 0.481079,-1.747914 0.82941,-2.584656 0.306938,-0.774967 0.634508,-1.549247 0.800981,-2.369563 -0.564655,0.109328 -1.097377,0.3435 -1.637916,0.535413 -1.080058,0.415631 -2.14785,0.862761 -3.234137,1.262409 -0.792247,-1.594697 -1.532755,-3.220413 -2.183847,-4.874638 z" />
    <path
       id="path923"
       style="fill:url(#linearGradient1096);fill-opacity:1;stroke:url(#linearGradient1892);stroke-width:1.41111;stroke-miterlimit:4;stroke-dasharray:none;stroke-opacity:1"
       d="m 118.169,74.855893 -23.362381,45.720737 28.447351,-8.51267 5.92005,17.54158 7.1856,2.23914 z m -1.62057,14.688508 5.41776,17.595319 -17.0987,5.26531 z"
       sodipodi:nodetypes="cccccccccc" />
    <path
       id="path919-4"
       style="fill:url(#radialGradient1882);fill-opacity:1;stroke:#d65d0e;stroke-width:1.41111;stroke-miterlimit:4;stroke-dasharray:none;stroke-opacity:1"
       d="m 101.86523,82.787109 c -9.179041,0.32892 -18.395013,4.545853 -23.944551,11.989325 -4.242734,5.597006 -6.048912,13.058616 -4.443997,19.936016 1.584702,6.99999 6.219479,12.95647 12.291362,16.6872 6.065223,3.77096 13.42976,5.37494 20.462426,4.73902 2.98401,-0.26204 6.18101,-0.98033 9.07422,-2.10547 3.10969,-1.22637 6.09667,-2.87156 8.62562,-5.07048 0.78037,-0.93481 1.24152,-2.10942 1.80407,-3.18733 -1.28516,-3.80859 -2.57032,-7.61719 -3.85547,-11.42578 -10.41226,3.1128 -20.82334,6.2295 -31.236332,9.33984 6.816041,-13.32893 13.627232,-26.660342 20.441402,-39.990231 -2.96873,-0.72397 -6.10994,-1.012378 -9.21875,-0.91211 z m 7.13868,25.787111 c 3.43033,-1.05534 6.86067,-2.11068 10.29101,-3.16602 -1.08724,-3.53125 -2.17448,-7.062497 -3.26172,-10.593747 -2.3431,4.586589 -4.68619,9.173177 -7.02929,13.759767 z" />
  </g>
</svg>
