<?xml version="1.0" encoding="UTF-8"?>
<svg width="170mm" height="140mm" viewBox="0 0 170 140" xmlns="http://www.w3.org/2000/svg" xmlns:xlink="http://www.w3.org/1999/xlink">
<defs>
<style>
   @import url('https://fonts.googleapis.com/css2?family=IBM+Plex+Mono:ital,wght@0,400;0,700;1,400;1,700');

   a { fill: #83a598; text-decoration: underline; }
   a:visited { fill: #d3869b; }
   text { font: 7px 'IBM Plex Mono'; fill: #ebdbb2; }
</style>
<marker id="a" overflow="visible" orient="auto">
<path transform="scale(.4)" d="m5.77 0-8.65 5v-10z" fill="#ebdbb2" fill-rule="evenodd" stroke="#f2e5bc" stroke-width="1pt"/>
</marker>
</defs>
<rect x="5" y="66" width="160" height="68" fill="#3c3836" stroke="#504945" stroke-dasharray="1.25, 1.25" stroke-width="1.25"/>

<rect x="8" y="10" width="60" height="20" fill="#665c54" stroke="#bdae93" stroke-width="1.5"/>
<rect x="8" y="40" width="60" height="20" fill="#665c54" stroke="#bdae93" stroke-width="1.5"/>
<rect x="8" y="70" width="60" height="20" fill="#665c54" stroke="#bdae93" stroke-width="1.5"/>
<rect x="8" y="100" width="60" height="20" fill="#665c54" stroke="#bdae93" stroke-width="1.5"/>

<rect x="102" y="40" width="60" height="20" fill="#665c54" stroke="#9d0006" stroke-width="1.5"/>
<rect x="102" y="70" width="60" height="20" fill="#665c54" stroke="#bdae93" stroke-width="1.5"/>
<rect x="102" y="100" width="60" height="20" fill="#665c54" stroke="#bdae93" stroke-width="1.5"/>

<path d="m39 28v12" fill="#ebdbb2" fill-rule="evenodd" marker-end="url(#a)" stroke="#f2e5bc" stroke-width="1.25"/>
<path d="m39 58v12" fill="#ebdbb2" fill-rule="evenodd" marker-end="url(#a)" stroke="#f2e5bc" stroke-width="1.25"/>
<path d="m39 88v12" fill="#ebdbb2" fill-rule="evenodd" marker-end="url(#a)" stroke="#f2e5bc" stroke-width="1.25"/>
<path d="m66 110h36" fill="#ebdbb2" fill-rule="evenodd" marker-end="url(#a)" stroke="#f2e5bc" stroke-width="1.25"/>
<path d="m131 72v-12" fill="#ebdbb2" fill-rule="evenodd" marker-end="url(#a)" stroke="#f2e5bc" stroke-width="1.25"/>
<path d="m131 102v-12" fill="#ebdbb2" fill-rule="evenodd" marker-end="url(#a)" stroke="#f2e5bc" stroke-width="1.25"/>

<text x="13" y="22">memory model</text>
<text>
   <tspan x="13" y="48">interesting</tspan>
   <tspan x="13" y="56">execution</tspan>
</text>
<text x="13" y="82">minimal test</text>
<text x="13" y="112">fuzzed test</text>
<text x="106" y="52">possible bug</text>
<text x="106" y="82">binary test</text>
<text>
   <tspan x="106" y="108">compilable</tspan>
   <tspan x="106" y="116">test</tspan>
</text>
<text x="44" y="37">
   <a xlink:href="https://github.com/JohnWickerson/memalloy" target="__blank">memalloy</a>
</text>
<text x="44" y="67">
   <a xlink:href="https://github.com/JohnWickerson/memalloy" target="__blank">memalloy</a>
</text>
<text x="44" y="97">
   <a xlink:href="c4f.html" target="__blank">c4f</a>
</text>
<text x="136" y="67">
   <a xlink:href="http://diy.inria.fr" target="__blank">litmus7</a>
</text>
<text x="136" y="97">compiler</text>
<text x="10" y="130">
  <a xlink:href="c4t.html" target="__blank">c4t</a>
  test cycles
</text>
</svg>
